. 
 
http://www.torrenting.com          :     Once & For all ;)


               www . Torrenting . Com 

(((((((((((((= Enjoy No RAR releases =))))))))))))))))))))


...................................NFO:....................................

.[IMG]http://lookpic.com/O/i2/1586/FK0vbDHZ.jpeg[/IMG]

[IMG]http://lookpic.com/O/i2/1778/IYZC51gu.png[/IMG]

Set in 1930s Paris, an orphan who lives in the walls of a train station is wrapped up in a mystery involving his late father and an automaton
 
http://www.imdb.com/title/tt0970179/

Source: 720p AMIABLE

Format                           : AVI
Format/Info                      : Audio Video Interleave
File size                        : 1.17 GiB
Duration                         : 2h 6mn
Overall bit rate                 : 1 329 Kbps
Writing library                  : VirtualDub build 33848/release

Video
ID                               : 0
Format                           : MPEG-4 Visual
Format profile                   : Advanced Simple@L5
Format settings, BVOP            : Yes
Format settings, QPel            : No
Format settings, GMC             : No warppoints
Format settings, Matrix          : Default (H.263)
Muxing mode                      : Packed bitstream
Codec ID                         : XVID
Codec ID/Hint                    : XviD
Duration                         : 2h 6mn
Bit rate                         : 1 127 Kbps
Width                            : 720 pixels
Height                           : 304 pixels
Display aspect ratio             : 2.35:1
Frame rate                       : 23.976 fps
Color space                      : YUV
Chroma subsampling               : 4:2:0
Bit depth                        : 8 bits
Scan type                        : Progressive
Bits/(Pixel*Frame)               : 0.215
Stream size                      : 1 019 MiB (85%)
Writing library                  : XviD 1.2.1 (UTC 2008-12-04)

Audio
ID                               : 1
Format                           : MPEG Audio
Format version                   : Version 1
Format profile                   : Layer 3
Mode                             : Joint stereo
Mode extension                   : MS Stereo
Codec ID                         : 55
Codec ID/Hint                    : MP3
Duration                         : 2h 6mn
Bit rate mode                    : Constant
Bit rate                         : 192 Kbps
Channel(s)                       : 2 channels
Sampling rate                    : 48.0 KHz
Stream size                      : 174 MiB (14%)
Alignment                        : Split accross interleaves
Interleave, duration             : 42 ms (1.00 video frame)
Interleave, preload duration     : 500 ms
Writing library                  : LAME3.98.2

Workdone:

Resized and converted audio to Mp3 and adjusted the levels to our liking.

Enjoy

[IMG]http://lookpic.com/O/i2/208/RkrgDTFW.png[/IMG]

[IMG]http://lookpic.com/O/i2/1305/VogDh7dz.jpeg[/IMG]
[IMG]http://lookpic.com/O/i2/1454/5Dyd4zd1.jpeg[/IMG]
[IMG]http://lookpic.com/O/i2/573/KPocupYD.jpeg[/IMG]
[IMG]http://lookpic.com/O/i2/497/HXAk4DNw.jpeg[/IMG]